<svg width="100" height="100" viewBox="0 0 100 100" fill="none" xmlns="http://www.w3.org/2000/svg">
<path d="M29.1666 91.6667H16.6666C14.4565 91.6667 12.3369 90.7887 10.7741 89.2259C9.21129 87.6631 8.33331 85.5435 8.33331 83.3333V54.1667C8.33331 51.9565 9.21129 49.8369 10.7741 48.2741C12.3369 46.7113 14.4565 45.8333 16.6666 45.8333H29.1666M58.3333 37.5V20.8333C58.3333 17.5181 57.0164 14.3387 54.6721 11.9945C52.3279 9.65029 49.1485 8.33333 45.8333 8.33333L29.1666 45.8333V91.6667H76.1666C78.1763 91.6894 80.1266 90.985 81.6579 89.6833C83.1893 88.3817 84.1986 86.5704 84.5 84.5833L90.25 47.0833C90.4313 45.889 90.3507 44.6695 90.0139 43.5094C89.6771 42.3492 89.0921 41.2762 88.2994 40.3646C87.5067 39.4531 86.5253 38.7247 85.4232 38.2301C84.3211 37.7354 83.1246 37.4863 81.9166 37.5H58.3333Z" stroke="#628B48" stroke-width="4.16667" stroke-linecap="round" stroke-linejoin="round"/>
</svg>
