<svg width="100" height="100" viewBox="0 0 100 100" fill="none" xmlns="http://www.w3.org/2000/svg">
<path d="M70.8333 8.33334H81.9583C84.3165 8.29163 86.6079 9.11723 88.3976 10.6534C90.1872 12.1896 91.3505 14.3294 91.6667 16.6667V45.8333C91.3505 48.1706 90.1872 50.3104 88.3976 51.8466C86.6079 53.3828 84.3165 54.2084 81.9583 54.1667H70.8333M41.6667 62.5V79.1667C41.6667 82.4819 42.9836 85.6613 45.3278 88.0055C47.672 90.3497 50.8515 91.6667 54.1667 91.6667L70.8333 54.1667V8.33334H23.8333C21.8236 8.31062 19.8734 9.01498 18.3421 10.3166C16.8107 11.6183 15.8014 13.4296 15.5 15.4167L9.75 52.9167C9.56872 54.111 9.64928 55.3305 9.98609 56.4906C10.3229 57.6507 10.9079 58.7238 11.7006 59.6354C12.4933 60.5469 13.4747 61.2753 14.5768 61.7699C15.6789 62.2646 16.8754 62.5137 18.0833 62.5H41.6667Z" stroke="#ED6A5A" stroke-width="4.16667" stroke-linecap="round" stroke-linejoin="round"/>
</svg>
