<svg width="128" height="35" viewBox="0 0 128 35" fill="none" xmlns="http://www.w3.org/2000/svg">
<g clip-path="url(#clip0_3_26)">
<path d="M6.744 25.216C5.656 25.216 4.68 25.024 3.816 24.64C2.952 24.24 2.264 23.704 1.752 23.032C1.256 22.36 0.984 21.616 0.936 20.8H4.32C4.384 21.312 4.632 21.736 5.064 22.072C5.512 22.408 6.064 22.576 6.72 22.576C7.36 22.576 7.856 22.448 8.208 22.192C8.576 21.936 8.76 21.608 8.76 21.208C8.76 20.776 8.536 20.456 8.088 20.248C7.656 20.024 6.96 19.784 6 19.528C5.008 19.288 4.192 19.04 3.552 18.784C2.928 18.528 2.384 18.136 1.92 17.608C1.472 17.08 1.248 16.368 1.248 15.472C1.248 14.736 1.456 14.064 1.872 13.456C2.304 12.848 2.912 12.368 3.696 12.016C4.496 11.664 5.432 11.488 6.504 11.488C8.088 11.488 9.352 11.888 10.296 12.688C11.24 13.472 11.76 14.536 11.856 15.88H8.64C8.592 15.352 8.368 14.936 7.968 14.632C7.584 14.312 7.064 14.152 6.408 14.152C5.8 14.152 5.328 14.264 4.992 14.488C4.672 14.712 4.512 15.024 4.512 15.424C4.512 15.872 4.736 16.216 5.184 16.456C5.632 16.68 6.328 16.912 7.272 17.152C8.232 17.392 9.024 17.64 9.648 17.896C10.272 18.152 10.808 18.552 11.256 19.096C11.72 19.624 11.96 20.328 11.976 21.208C11.976 21.976 11.76 22.664 11.328 23.272C10.912 23.88 10.304 24.36 9.504 24.712C8.72 25.048 7.8 25.216 6.744 25.216ZM13.8701 18.304C13.8701 16.96 14.1341 15.768 14.6621 14.728C15.2061 13.688 15.9341 12.888 16.8461 12.328C17.7741 11.768 18.8061 11.488 19.9421 11.488C20.9341 11.488 21.7981 11.688 22.5341 12.088C23.2861 12.488 23.8861 12.992 24.3341 13.6V11.704H27.7181V25H24.3341V23.056C23.9021 23.68 23.3021 24.2 22.5341 24.616C21.7821 25.016 20.9101 25.216 19.9181 25.216C18.7981 25.216 17.7741 24.928 16.8461 24.352C15.9341 23.776 15.2061 22.968 14.6621 21.928C14.1341 20.872 13.8701 19.664 13.8701 18.304ZM24.3341 18.352C24.3341 17.536 24.1741 16.84 23.8541 16.264C23.5341 15.672 23.1021 15.224 22.5581 14.92C22.0141 14.6 21.4301 14.44 20.8061 14.44C20.1821 14.44 19.6061 14.592 19.0781 14.896C18.5501 15.2 18.1181 15.648 17.7821 16.24C17.4621 16.816 17.3021 17.504 17.3021 18.304C17.3021 19.104 17.4621 19.808 17.7821 20.416C18.1181 21.008 18.5501 21.464 19.0781 21.784C19.6221 22.104 20.1981 22.264 20.8061 22.264C21.4301 22.264 22.0141 22.112 22.5581 21.808C23.1021 21.488 23.5341 21.04 23.8541 20.464C24.1741 19.872 24.3341 19.168 24.3341 18.352ZM37.0958 14.464H34.7678V25H31.3598V14.464H29.8478V11.704H31.3598V11.032C31.3598 9.4 31.8238 8.2 32.7518 7.432C33.6798 6.664 35.0798 6.304 36.9518 6.352V9.184C36.1358 9.168 35.5678 9.304 35.2478 9.592C34.9278 9.88 34.7678 10.4 34.7678 11.152V11.704H37.0958V14.464ZM51.6332 18.064C51.6332 18.544 51.6012 18.976 51.5372 19.36H41.8172C41.8972 20.32 42.2332 21.072 42.8252 21.616C43.4172 22.16 44.1452 22.432 45.0092 22.432C46.2572 22.432 47.1452 21.896 47.6732 20.824H51.2972C50.9132 22.104 50.1772 23.16 49.0892 23.992C48.0012 24.808 46.6652 25.216 45.0812 25.216C43.8012 25.216 42.6492 24.936 41.6252 24.376C40.6172 23.8 39.8252 22.992 39.2492 21.952C38.6892 20.912 38.4092 19.712 38.4092 18.352C38.4092 16.976 38.6892 15.768 39.2492 14.728C39.8092 13.688 40.5932 12.888 41.6012 12.328C42.6092 11.768 43.7692 11.488 45.0812 11.488C46.3452 11.488 47.4732 11.76 48.4652 12.304C49.4732 12.848 50.2492 13.624 50.7932 14.632C51.3532 15.624 51.6332 16.768 51.6332 18.064ZM48.1532 17.104C48.1372 16.24 47.8252 15.552 47.2172 15.04C46.6092 14.512 45.8652 14.248 44.9852 14.248C44.1532 14.248 43.4492 14.504 42.8732 15.016C42.3132 15.512 41.9692 16.208 41.8412 17.104H48.1532Z" fill="#FFD2A5"/>
<path d="M86.016 13.648C86.448 13.008 87.04 12.488 87.792 12.088C88.56 11.688 89.432 11.488 90.408 11.488C91.544 11.488 92.568 11.768 93.48 12.328C94.408 12.888 95.136 13.688 95.664 14.728C96.208 15.752 96.48 16.944 96.48 18.304C96.48 19.664 96.208 20.872 95.664 21.928C95.136 22.968 94.408 23.776 93.48 24.352C92.568 24.928 91.544 25.216 90.408 25.216C89.416 25.216 88.544 25.024 87.792 24.64C87.056 24.24 86.464 23.728 86.016 23.104V25H82.656V7.24H86.016V13.648ZM93.048 18.304C93.048 17.504 92.88 16.816 92.544 16.24C92.224 15.648 91.792 15.2 91.248 14.896C90.72 14.592 90.144 14.44 89.52 14.44C88.912 14.44 88.336 14.6 87.792 14.92C87.264 15.224 86.832 15.672 86.496 16.264C86.176 16.856 86.016 17.552 86.016 18.352C86.016 19.152 86.176 19.848 86.496 20.44C86.832 21.032 87.264 21.488 87.792 21.808C88.336 22.112 88.912 22.264 89.52 22.264C90.144 22.264 90.72 22.104 91.248 21.784C91.792 21.464 92.224 21.008 92.544 20.416C92.88 19.824 93.048 19.12 93.048 18.304ZM111.474 11.704V25H108.09V23.32C107.658 23.896 107.09 24.352 106.386 24.688C105.698 25.008 104.946 25.168 104.13 25.168C103.09 25.168 102.17 24.952 101.37 24.52C100.57 24.072 99.9376 23.424 99.4736 22.576C99.0256 21.712 98.8016 20.688 98.8016 19.504V11.704H102.162V19.024C102.162 20.08 102.426 20.896 102.954 21.472C103.482 22.032 104.202 22.312 105.114 22.312C106.042 22.312 106.77 22.032 107.298 21.472C107.826 20.896 108.09 20.08 108.09 19.024V11.704H111.474ZM127.509 11.704L119.277 31.288H115.701L118.581 24.664L113.253 11.704H117.021L120.453 20.992L123.933 11.704H127.509Z" fill="#FFD2A5"/>
<path d="M67 27C67 27 75 23 75 17V10L67 7L59 10V17C59 23 67 27 67 27Z" stroke="#D38CAD" stroke-width="2" stroke-linecap="round" stroke-linejoin="round"/>
<g clip-path="url(#clip1_3_26)">
<path d="M66.7977 19.2247C68.287 19.2247 69.4944 18.0174 69.4944 16.5281C69.4944 15.0388 68.287 13.8315 66.7977 13.8315C65.3084 13.8315 64.1011 15.0388 64.1011 16.5281C64.1011 18.0174 65.3084 19.2247 66.7977 19.2247Z" stroke="#D38CAD" stroke-linecap="round" stroke-linejoin="round"/>
<path d="M70.1685 19.8989L68.7022 18.4326" stroke="#D38CAD" stroke-linecap="round" stroke-linejoin="round"/>
</g>
</g>
<defs>
<clipPath id="clip0_3_26">
<rect width="128" height="35" fill="white"/>
</clipPath>
<clipPath id="clip1_3_26">
<rect width="8.08989" height="8.08989" fill="white" transform="translate(63.0899 12.8203)"/>
</clipPath>
</defs>
</svg>
