<svg width="128" height="30" viewBox="0 0 128 30" fill="none" xmlns="http://www.w3.org/2000/svg">
<path d="M6.744 26.216C5.656 26.216 4.68 26.024 3.816 25.64C2.952 25.24 2.264 24.704 1.752 24.032C1.256 23.36 0.984 22.616 0.936 21.8H4.32C4.384 22.312 4.632 22.736 5.064 23.072C5.512 23.408 6.064 23.576 6.72 23.576C7.36 23.576 7.856 23.448 8.208 23.192C8.576 22.936 8.76 22.608 8.76 22.208C8.76 21.776 8.536 21.456 8.088 21.248C7.656 21.024 6.96 20.784 6 20.528C5.008 20.288 4.192 20.04 3.552 19.784C2.928 19.528 2.384 19.136 1.92 18.608C1.472 18.08 1.248 17.368 1.248 16.472C1.248 15.736 1.456 15.064 1.872 14.456C2.304 13.848 2.912 13.368 3.696 13.016C4.496 12.664 5.432 12.488 6.504 12.488C8.088 12.488 9.352 12.888 10.296 13.688C11.24 14.472 11.76 15.536 11.856 16.88H8.64C8.592 16.352 8.368 15.936 7.968 15.632C7.584 15.312 7.064 15.152 6.408 15.152C5.8 15.152 5.328 15.264 4.992 15.488C4.672 15.712 4.512 16.024 4.512 16.424C4.512 16.872 4.736 17.216 5.184 17.456C5.632 17.68 6.328 17.912 7.272 18.152C8.232 18.392 9.024 18.64 9.648 18.896C10.272 19.152 10.808 19.552 11.256 20.096C11.72 20.624 11.96 21.328 11.976 22.208C11.976 22.976 11.76 23.664 11.328 24.272C10.912 24.88 10.304 25.36 9.504 25.712C8.72 26.048 7.8 26.216 6.744 26.216ZM13.8701 19.304C13.8701 17.96 14.1341 16.768 14.6621 15.728C15.2061 14.688 15.9341 13.888 16.8461 13.328C17.7741 12.768 18.8061 12.488 19.9421 12.488C20.9341 12.488 21.7981 12.688 22.5341 13.088C23.2861 13.488 23.8861 13.992 24.3341 14.6V12.704H27.7181V26H24.3341V24.056C23.9021 24.68 23.3021 25.2 22.5341 25.616C21.7821 26.016 20.9101 26.216 19.9181 26.216C18.7981 26.216 17.7741 25.928 16.8461 25.352C15.9341 24.776 15.2061 23.968 14.6621 22.928C14.1341 21.872 13.8701 20.664 13.8701 19.304ZM24.3341 19.352C24.3341 18.536 24.1741 17.84 23.8541 17.264C23.5341 16.672 23.1021 16.224 22.5581 15.92C22.0141 15.6 21.4301 15.44 20.8061 15.44C20.1821 15.44 19.6061 15.592 19.0781 15.896C18.5501 16.2 18.1181 16.648 17.7821 17.24C17.4621 17.816 17.3021 18.504 17.3021 19.304C17.3021 20.104 17.4621 20.808 17.7821 21.416C18.1181 22.008 18.5501 22.464 19.0781 22.784C19.6221 23.104 20.1981 23.264 20.8061 23.264C21.4301 23.264 22.0141 23.112 22.5581 22.808C23.1021 22.488 23.5341 22.04 23.8541 21.464C24.1741 20.872 24.3341 20.168 24.3341 19.352ZM37.0958 15.464H34.7678V26H31.3598V15.464H29.8478V12.704H31.3598V12.032C31.3598 10.4 31.8238 9.2 32.7518 8.432C33.6798 7.664 35.0798 7.304 36.9518 7.352V10.184C36.1358 10.168 35.5678 10.304 35.2478 10.592C34.9278 10.88 34.7678 11.4 34.7678 12.152V12.704H37.0958V15.464ZM51.6332 19.064C51.6332 19.544 51.6012 19.976 51.5372 20.36H41.8172C41.8972 21.32 42.2332 22.072 42.8252 22.616C43.4172 23.16 44.1452 23.432 45.0092 23.432C46.2572 23.432 47.1452 22.896 47.6732 21.824H51.2972C50.9132 23.104 50.1772 24.16 49.0892 24.992C48.0012 25.808 46.6652 26.216 45.0812 26.216C43.8012 26.216 42.6492 25.936 41.6252 25.376C40.6172 24.8 39.8252 23.992 39.2492 22.952C38.6892 21.912 38.4092 20.712 38.4092 19.352C38.4092 17.976 38.6892 16.768 39.2492 15.728C39.8092 14.688 40.5932 13.888 41.6012 13.328C42.6092 12.768 43.7692 12.488 45.0812 12.488C46.3452 12.488 47.4732 12.76 48.4652 13.304C49.4732 13.848 50.2492 14.624 50.7932 15.632C51.3532 16.624 51.6332 17.768 51.6332 19.064ZM48.1532 18.104C48.1372 17.24 47.8252 16.552 47.2172 16.04C46.6092 15.512 45.8652 15.248 44.9852 15.248C44.1532 15.248 43.4492 15.504 42.8732 16.016C42.3132 16.512 41.9692 17.208 41.8412 18.104H48.1532Z" fill="#FEFFC1"/>
<path d="M86.016 14.648C86.448 14.008 87.04 13.488 87.792 13.088C88.56 12.688 89.432 12.488 90.408 12.488C91.544 12.488 92.568 12.768 93.48 13.328C94.408 13.888 95.136 14.688 95.664 15.728C96.208 16.752 96.48 17.944 96.48 19.304C96.48 20.664 96.208 21.872 95.664 22.928C95.136 23.968 94.408 24.776 93.48 25.352C92.568 25.928 91.544 26.216 90.408 26.216C89.416 26.216 88.544 26.024 87.792 25.64C87.056 25.24 86.464 24.728 86.016 24.104V26H82.656V8.24H86.016V14.648ZM93.048 19.304C93.048 18.504 92.88 17.816 92.544 17.24C92.224 16.648 91.792 16.2 91.248 15.896C90.72 15.592 90.144 15.44 89.52 15.44C88.912 15.44 88.336 15.6 87.792 15.92C87.264 16.224 86.832 16.672 86.496 17.264C86.176 17.856 86.016 18.552 86.016 19.352C86.016 20.152 86.176 20.848 86.496 21.44C86.832 22.032 87.264 22.488 87.792 22.808C88.336 23.112 88.912 23.264 89.52 23.264C90.144 23.264 90.72 23.104 91.248 22.784C91.792 22.464 92.224 22.008 92.544 21.416C92.88 20.824 93.048 20.12 93.048 19.304ZM111.474 12.704V26H108.09V24.32C107.658 24.896 107.09 25.352 106.386 25.688C105.698 26.008 104.946 26.168 104.13 26.168C103.09 26.168 102.17 25.952 101.37 25.52C100.57 25.072 99.9376 24.424 99.4736 23.576C99.0256 22.712 98.8016 21.688 98.8016 20.504V12.704H102.162V20.024C102.162 21.08 102.426 21.896 102.954 22.472C103.482 23.032 104.202 23.312 105.114 23.312C106.042 23.312 106.77 23.032 107.298 22.472C107.826 21.896 108.09 21.08 108.09 20.024V12.704H111.474ZM127.509 12.704L119.277 32.288H115.701L118.581 25.664L113.253 12.704H117.021L120.453 21.992L123.933 12.704H127.509Z" fill="#FEFFC1"/>
<path d="M67 28C67 28 75 24 75 18V11L67 8L59 11V18C59 24 67 28 67 28Z" stroke="#D38CAD" stroke-width="2" stroke-linecap="round" stroke-linejoin="round"/>
<g clip-path="url(#clip0_3_28)">
<path d="M66.7977 20.2247C68.287 20.2247 69.4944 19.0174 69.4944 17.5281C69.4944 16.0388 68.287 14.8315 66.7977 14.8315C65.3084 14.8315 64.1011 16.0388 64.1011 17.5281C64.1011 19.0174 65.3084 20.2247 66.7977 20.2247Z" stroke="#D38CAD" stroke-linecap="round" stroke-linejoin="round"/>
<path d="M70.1685 20.8989L68.7022 19.4326" stroke="#D38CAD" stroke-linecap="round" stroke-linejoin="round"/>
</g>
<defs>
<clipPath id="clip0_3_28">
<rect width="8.08989" height="8.08989" fill="white" transform="translate(63.0899 13.8203)"/>
</clipPath>
</defs>
</svg>
