<svg width="220" height="60" viewBox="0 0 220 60" fill="none" xmlns="http://www.w3.org/2000/svg">
<path d="M26.5 12.4167L31.7787 23.1109L43.5833 24.8363L35.0416 33.1559L37.0575 44.9092L26.5 39.3571L15.9425 44.9092L17.9583 33.1559L9.41663 24.8363L21.2212 23.1109L26.5 12.4167Z" fill="#D38CAD" stroke="#D38CAD" stroke-width="2" stroke-linecap="round" stroke-linejoin="round"/>
<path d="M68.5 12.4167L73.7787 23.1109L85.5833 24.8363L77.0416 33.1559L79.0575 44.9092L68.5 39.3571L57.9425 44.9092L59.9583 33.1559L51.4166 24.8363L63.2212 23.1109L68.5 12.4167Z" fill="#D38CAD" stroke="#D38CAD" stroke-width="2" stroke-linecap="round" stroke-linejoin="round"/>
<path d="M110.5 12.4167L115.779 23.1109L127.583 24.8363L119.042 33.1559L121.057 44.9092L110.5 39.3571L99.9425 44.9092L101.958 33.1559L93.4166 24.8363L105.221 23.1109L110.5 12.4167Z" fill="#D38CAD" stroke="#D38CAD" stroke-width="2" stroke-linecap="round" stroke-linejoin="round"/>
<path d="M152.5 12.4167L157.779 23.1109L169.583 24.8363L161.042 33.1559L163.057 44.9092L152.5 39.3571L141.942 44.9092L143.958 33.1559L135.417 24.8363L147.221 23.1109L152.5 12.4167Z" fill="#D38CAD" stroke="#D38CAD" stroke-width="2" stroke-linecap="round" stroke-linejoin="round"/>
<path d="M194.5 12.4167L199.779 23.1109L211.583 24.8363L203.042 33.1559L205.057 44.9092L194.5 39.3571L183.942 44.9092L185.958 33.1559L177.417 24.8363L189.221 23.1109L194.5 12.4167Z" fill="#D38CAD" stroke="#D38CAD" stroke-width="2" stroke-linecap="round" stroke-linejoin="round"/>
</svg>
